# xmcd
#
# Track frame offsets:
#	150
#	23695
#	42297
#	45697
#	65841
#	87869
#	111049
#	194649
#	225126
#	248845
#	302833
#
# Disc length: 4260 seconds
#
# Revision: 0
# Processed by: cddbd v1.5.2PL0 Copyright (c) Steve Scherf et al.
# Submitted via: EasyCDDAExtractor 9.0.0.1
#
DISCID=8a10a20b
DTITLE=Blue Oyster Cult - Independence Hall Baton Rouge LA 16-07-74
DYEAR=1974
DGENRE=Hard Rock
TTITLE0=The Red and The Black
TTITLE1=OD'd On Life Itself
TTITLE2=Brief Instrumental
TTITLE3=Career Of Evil
TTITLE4=Harvester Of Eyes
TTITLE5=Dominance And Submission
TTITLE6=7 Screaming Diz-Busters
TTITLE7=Buck's Boogie
TTITLE8=Cities On Flame With Rock And Roll
TTITLE9=ME 262
TTITLE10=Hot Rails To Hell
EXTD=
EXTT0=
EXTT1=
EXTT2=
EXTT3=
EXTT4=
EXTT5=
EXTT6=
EXTT7=
EXTT8=
EXTT9=
EXTT10=
PLAYORDER=
